inDegrees=yes
name=ik_lifting_orientations
DataType=double
version=3
OpenSimVersion=4.5-2024-01-10-34fd6af
endheader
time	pelvis_tilt	pelvis_list	pelvis_rotation	pelvis_tx	pelvis_ty	pelvis_tz	hip_flexion_r	hip_adduction_r	hip_rotation_r	knee_angle_r	knee_angle_r_beta	ankle_angle_r	subtalar_angle_r	mtp_angle_r	hip_flexion_l	hip_adduction_l	hip_rotation_l	knee_angle_l	knee_angle_l_beta	ankle_angle_l	subtalar_angle_l	mtp_angle_l	lumbar_extension	lumbar_bending	lumbar_rotation	arm_flex_r	arm_add_r	arm_rot_r	elbow_flex_r	pro_sup_r	wrist_flex_r	wrist_dev_r	arm_flex_l	arm_add_l	arm_rot_l	elbow_flex_l	pro_sup_l	wrist_flex_l	wrist_dev_l
1.31	0.7574280095477369	-1.440489716019068	-78.32700734109153	0	0.9399999998679526	0	44.88932121971153	-10.66445171252059	0	60.036480424708	1.047834254720278	-5.240053210289616	0	0	44.88932121971153	-10.66445171252059	0	60.036480424708	1.047834254720278	-5.240053210289616	0	0	-0.2405473675491827	-3.314377090871246	-26.22837053364315	133.4717595714228	25.88192626991679	-57.2293110482322	51.58259317672547	2.275499976627033	0	0	0	-10.1981589152044	0	87.76068597011957	2.275499976627033	0	0
1.32	0.7793025956949391	-1.448749927972211	-78.33297101870838	0	0.9399999998679526	0	44.88933925527881	-10.66407347736093	0	60.03647577458791	1.047834173560372	-5.23987501143144	0	0	44.88933925527881	-10.66407347736093	0	60.03647577458791	1.047834173560372	-5.23987501143144	0	0	-0.2695376026457619	-3.342631399671316	-26.2336804177574	133.3312067819686	26.24880357337228	-56.89737027860638	51.01977660712532	2.275241784822563	0	0	0	-10.19856045028948	0	87.76094003167682	2.275241784822563	0	0
1.33	0.7635334637796094	-1.441862471590943	-78.334631143325	0	0.9399999998679526	0	44.88936745205199	-10.66348105225626	0	60.03646851827618	1.047834046913841	-5.239595837706292	0	0	44.88936745205199	-10.66348105225626	0	60.03646851827618	1.047834046913841	-5.239595837706292	0	0	-0.2337245407741074	-3.312493856157054	-26.21562969183081	133.6709146716976	26.52212748942124	-56.33659579279466	50.43502423817557	2.274838400862483	0	0	0	-10.19918741563456	0	87.76133696275087	2.274838400862483	0	0
1.34	0.2106766297292083	-1.993252674459002	-79.1465413374102	0	0.9399999998679526	0	44.88942139889141	-10.66234701655663	0	60.03645465041478	1.047833804873999	-5.239061498743263	0	0	44.88942139889141	-10.66234701655663	0	60.03645465041478	1.047833804873999	-5.239061498743263	0	0	-0.6231308338931428	-3.477860039283195	-24.68452523771904	132.6729301870991	26.90248217152911	-56.17029755871052	51.23087090582942	2.274066894919325	0	0	0	-10.20038616493793	0	87.76209612698045	2.274066894919325	0	0
1.35	0.2304769588316221	-2.018136475782732	-79.12881193409667	0	0.9399999998679526	0	44.88946130307123	-10.66151084428073	0	60.03644437423889	1.047833625520895	-5.238667850467429	0	0	44.88946130307123	-10.66151084428073	0	60.03644437423889	1.047833625520895	-5.238667850467429	0	0	-0.6680809471535896	-3.496373594661589	-24.7235238502528	131.8314063962401	28.07703363116035	-55.61192387231399	52.5792166821	2.273495772931819	0	0	0	-10.20127411666994	0	87.76265811282519	2.273495772931819	0	0
1.36	-0.1155679401823362	-1.38263683898482	-80.99847732390093	0	0.9399999998679526	0	44.88959181013617	-10.65880858096707	0	60.03641059364483	1.047833035938306	-5.237400350972965	0	0	44.88959181013617	-10.65880858096707	0	60.03641059364483	1.047833035938306	-5.237400350972965	0	0	0.9781936798916355	-3.262227316710777	-22.44661535860828	131.0545957502828	28.27066552518392	-54.90408485876863	52.26592658171916	2.271623508069185	0	0	0	-10.20419005137066	0	87.76450042780614	2.271623508069185	0	0
1.37	-0.1115820359514065	-1.368292672912916	-80.99948116394755	0	0.9399999998679526	0	44.88962822596175	-10.65804719175389	0	60.03640122411937	1.047832872409237	-5.237042367942756	0	0	44.88962822596175	-10.65804719175389	0	60.03640122411937	1.047832872409237	-5.237042367942756	0	0	0.99765162206726	-3.242473607816941	-22.45038871617473	131.6405414928601	29.45843633632919	-54.60268797384648	51.56022792380994	2.271102316989172	0	0	0	-10.20500027752628	0	87.76501328148622	2.271102316989172	0	0
1.38	-0.4183371470076965	-0.7406012852940574	-82.84985871960909	0	0.9399999998679526	0	44.88969302270086	-10.65669979394904	0	60.03638449533504	1.047832580436871	-5.236409724334249	0	0	44.88969302270086	-10.65669979394904	0	60.03638449533504	1.047832580436871	-5.236409724334249	0	0	1.765833864646659	-2.995583142682301	-20.61617482044046	130.6510083992299	29.96410858890466	-54.09175998666466	52.52019427757858	2.270173608339785	0	0	0	-10.20644569938972	0	87.76592713388477	2.270173608339785	0	0
1.39	-0.1008872399226812	-1.372918628570873	-81.00009340513905	0	0.9399999998679526	0	44.88974566192604	-10.65560760559479	0	60.03637089305416	1.047832343032284	-5.235897270488891	0	0	44.88974566192604	-10.65560760559479	0	60.03637089305416	1.047832343032284	-5.235897270488891	0	0	1.044456523622751	-4.061445819015476	-21.72978812059775	129.9639004465116	29.23126279334535	-54.29949727257242	53.00182973153007	2.269418804271385	0	0	0	-10.20762087453926	0	87.76666986363512	2.269418804271385	0	0
1.4	-0.8229508966649499	-0.7561710357932052	-79.26843856488077	0	0.9399999998679526	0	44.88978206594748	-10.6548563808351	0	60.03636145228801	1.04783217825983	-5.235545254439915	0	0	44.88978206594748	-10.6548563808351	0	60.03636145228801	1.04783217825983	-5.235545254439915	0	0	2.48555765940949	-4.260106964098759	-24.51743700671701	129.5293517620793	30.47766667081681	-55.29912013216374	53.39127487154001	2.268896031033775	0	0	0	-10.20843578053978	0	87.76718427434254	2.268896031033775	0	0
1.41	-0.4807795255720161	-1.401107738521702	-77.40491798366384	0	0.9399999998679526	0	44.88984040683372	-10.65365018717686	0	60.0363463584842	1.047831914823257	-5.234979995665968	0	0	44.88984040683372	-10.65365018717686	0	60.0363463584842	1.047831914823257	-5.234979995665968	0	0	1.630181819312588	-4.521968602157833	-26.36820008709413	130.7417670934158	29.55838958740823	-55.79789928978263	51.7216594027845	2.268058917201289	0	0	0	-10.20973974046395	0	87.76800799723856	2.268058917201289	0	0
1.42	-0.4936748501342802	-1.398546880705336	-77.40360775763114	0	0.9399999998679526	0	44.88990799523494	-10.65224394326052	0	60.03632897532272	1.047831611429855	-5.23432036910394	0	0	44.88990799523494	-10.65224394326052	0	60.03632897532272	1.047831611429855	-5.23432036910394	0	0	1.645121921963969	-4.513124100319118	-26.36522623356562	129.8690331499146	30.7236119016941	-54.75882865210038	52.81408030180325	2.267091208783703	0	0	0	-10.21124431978505	0	87.76896022545483	2.267091208783703	0	0
